<svg width="29" height="38" viewBox="0 0 29 38" fill="none" xmlns="http://www.w3.org/2000/svg">
<g filter="url(#filter0_d_115_702)">
<g filter="url(#filter1_d_115_702)">
<path d="M5 27.7772V2C5 1.44772 5.44771 1 6 1H23C23.5523 1 24 1.44772 24 2V27.6948C24 28.5697 22.9557 29.0228 22.3167 28.4249L15.4218 21.9732C15.0449 21.6205 14.4615 21.6126 14.0752 21.9551L6.66335 28.5255C6.01816 29.0974 5 28.6394 5 27.7772Z" fill="#EBD09E"/>
</g>
<path d="M19.375 9.875H16.125V6.625C16.125 6.19402 15.9538 5.7807 15.649 5.47595C15.3443 5.1712 14.931 5 14.5 5C14.069 5 13.6557 5.1712 13.351 5.47595C13.0462 5.7807 12.875 6.19402 12.875 6.625L12.9327 9.875H9.625C9.19402 9.875 8.7807 10.0462 8.47595 10.351C8.1712 10.6557 8 11.069 8 11.5C8 11.931 8.1712 12.3443 8.47595 12.649C8.7807 12.9538 9.19402 13.125 9.625 13.125L12.9327 13.0673L12.875 16.375C12.875 16.806 13.0462 17.2193 13.351 17.524C13.6557 17.8288 14.069 18 14.5 18C14.931 18 15.3443 17.8288 15.649 17.524C15.9538 17.2193 16.125 16.806 16.125 16.375V13.0673L19.375 13.125C19.806 13.125 20.2193 12.9538 20.524 12.649C20.8288 12.3443 21 11.931 21 11.5C21 11.069 20.8288 10.6557 20.524 10.351C20.2193 10.0462 19.806 9.875 19.375 9.875Z" fill="#192C44"/>
</g>
<defs>
<filter id="filter0_d_115_702" x="1" y="1" width="27" height="35.7791" filterUnits="userSpaceOnUse" color-interpolation-filters="sRGB">
<feFlood flood-opacity="0" result="BackgroundImageFix"/>
<feColorMatrix in="SourceAlpha" type="matrix" values="0 0 0 0 0 0 0 0 0 0 0 0 0 0 0 0 0 0 127 0" result="hardAlpha"/>
<feOffset dy="4"/>
<feGaussianBlur stdDeviation="2"/>
<feComposite in2="hardAlpha" operator="out"/>
<feColorMatrix type="matrix" values="0 0 0 0 0 0 0 0 0 0 0 0 0 0 0 0 0 0 0.25 0"/>
<feBlend mode="normal" in2="BackgroundImageFix" result="effect1_dropShadow_115_702"/>
<feBlend mode="normal" in="SourceGraphic" in2="effect1_dropShadow_115_702" result="shape"/>
</filter>
<filter id="filter1_d_115_702" x="0" y="0" width="29" height="37.7791" filterUnits="userSpaceOnUse" color-interpolation-filters="sRGB">
<feFlood flood-opacity="0" result="BackgroundImageFix"/>
<feColorMatrix in="SourceAlpha" type="matrix" values="0 0 0 0 0 0 0 0 0 0 0 0 0 0 0 0 0 0 127 0" result="hardAlpha"/>
<feOffset dy="4"/>
<feGaussianBlur stdDeviation="2.5"/>
<feComposite in2="hardAlpha" operator="out"/>
<feColorMatrix type="matrix" values="0 0 0 0 0 0 0 0 0 0 0 0 0 0 0 0 0 0 0.68 0"/>
<feBlend mode="normal" in2="BackgroundImageFix" result="effect1_dropShadow_115_702"/>
<feBlend mode="normal" in="SourceGraphic" in2="effect1_dropShadow_115_702" result="shape"/>
</filter>
</defs>
</svg>
