<svg width="10" height="10" viewBox="0 0 10 10" fill="none" xmlns="http://www.w3.org/2000/svg">
<path d="M7.91828 5.09859L4.99015 7.98047C4.92626 8.04367 4.84002 8.07912 4.75015 8.07912C4.66028 8.07912 4.57404 8.04367 4.51015 7.98047L1.58203 5.09922C1.51774 5.03604 1.43122 5.00065 1.34109 5.00065C1.25096 5.00065 1.16443 5.03604 1.10015 5.09922C1.06849 5.13008 1.04334 5.16696 1.02616 5.2077C1.00898 5.24843 1.00013 5.29219 1.00013 5.3364C1.00013 5.38061 1.00898 5.42437 1.02616 5.46511C1.04334 5.50585 1.06849 5.54273 1.10015 5.57359L4.02765 8.45484C4.22048 8.64417 4.47991 8.75024 4.75015 8.75024C5.02039 8.75024 5.27982 8.64417 5.47265 8.45484L8.40015 5.57359C8.4319 5.54272 8.45714 5.5058 8.47437 5.465C8.49161 5.42421 8.50049 5.38038 8.50049 5.33609C8.50049 5.29181 8.49161 5.24797 8.47437 5.20718C8.45714 5.16638 8.4319 5.12946 8.40015 5.09859C8.33587 5.03542 8.24934 5.00002 8.15921 5.00002C8.06908 5.00002 7.98256 5.03542 7.91828 5.09859Z" fill="#ABB1B8"/>
</svg>
