<svg width="17" height="17" viewBox="0 0 17 17" fill="none" xmlns="http://www.w3.org/2000/svg">
<g clip-path="url(#clip0_42_247)">
<path fill-rule="evenodd" clip-rule="evenodd" d="M6.36988 3.6571C6.48959 4.66506 6.32596 5.71623 5.96188 6.65973C5.55884 7.70381 5.02334 8.83431 4.95675 9.95844C4.9008 10.9055 5.11542 12.0261 5.68775 12.7932C6.31463 13.6333 7.34384 14.1666 8.47646 14.1666H9.54746C10.4359 14.1667 11.2919 13.8328 11.9457 13.2312C12.5995 12.6297 13.0033 11.8043 13.0771 10.9189L13.3328 7.85044C13.3409 7.75277 13.3287 7.65449 13.2969 7.56179C13.2651 7.46909 13.2144 7.384 13.148 7.3119C13.0817 7.2398 13.001 7.18225 12.9113 7.14291C12.8215 7.10356 12.7246 7.08327 12.6266 7.08331H8.854C8.57324 7.08295 8.30398 6.97169 8.10486 6.77375C7.90573 6.57582 7.79285 6.30724 7.7908 6.02648C7.78513 5.3394 7.82834 4.49152 7.51242 3.85898C7.22909 3.29231 6.96417 3.18748 6.729 3.18748C6.5165 3.18748 6.3465 3.46585 6.36988 3.6571ZM6.729 1.77081C7.6895 1.77081 8.35392 2.37431 8.77963 3.22502C9.14938 3.96523 9.18409 4.85419 9.2025 5.66665H12.6266C12.9206 5.6666 13.2114 5.72757 13.4807 5.8457C13.7499 5.96382 13.9917 6.13653 14.1907 6.3529C14.3898 6.56927 14.5418 6.8246 14.6371 7.10273C14.7324 7.38086 14.769 7.67574 14.7445 7.96873L14.4888 11.0365C14.3856 12.276 13.8202 13.4315 12.9049 14.2737C11.9897 15.1159 10.7913 15.5833 9.54746 15.5833H8.47646C7.80452 15.5852 7.13932 15.4493 6.52199 15.184C5.90466 14.9186 5.34831 14.5295 4.88734 14.0406C4.56351 14.1247 4.23025 14.1671 3.89567 14.1666C3.11084 14.1666 2.45917 13.7275 2.037 13.0276C1.62617 12.3476 1.4165 11.4091 1.4165 10.2708C1.4165 9.13323 1.62688 8.19469 2.037 7.51469C2.45917 6.81415 3.11084 6.37498 3.89567 6.37498C4.09471 6.37498 4.3058 6.4104 4.51688 6.4699C4.8413 5.6199 5.07221 4.74369 4.96313 3.82427C4.8413 2.80073 5.67784 1.77081 6.729 1.77081ZM4.0345 7.80865C3.69096 7.73781 3.4218 7.96165 3.25038 8.2464C3.01946 8.6289 2.83317 9.2834 2.83317 10.2708C2.83317 11.2582 3.01946 11.9134 3.24967 12.2959C3.46925 12.6586 3.703 12.75 3.89567 12.75C3.941 12.75 3.98563 12.7486 4.03025 12.7464C3.65059 11.8908 3.48767 10.8056 3.54292 9.87485C3.57621 9.30465 3.79863 8.51627 4.0345 7.80865Z" fill="#192C44"/>
</g>
<defs>
<clipPath id="clip0_42_247">
<rect width="17" height="17" fill="white"/>
</clipPath>
</defs>
</svg>
